<svg xmlns="http://www.w3.org/2000/svg" viewBox="0 0 5000 3200" id="message-notification-in-laptop-with-coffee-cup"><g data-name="‘ëîé_1"><path fill="#9dbde4" d="M3761.682 2112.595a37.28 37.28 0 1 1 37.28-37.28 37.322 37.322 0 0 1-37.28 37.28Zm0-59.27a21.99 21.99 0 1 0 21.99 21.99 22.015 22.015 0 0 0-21.99-21.99ZM1214.685 1956.541a32.013 32.013 0 1 1 32.013-32.013 32.05 32.05 0 0 1-32.013 32.013Zm0-50.897a18.884 18.884 0 1 0 18.884 18.884 18.905 18.905 0 0 0-18.884-18.884ZM3729.025 745.273h-29.509v-41.61a8.373 8.373 0 1 0-16.746 0v41.61h-29.508a8.373 8.373 0 1 0 0 16.746h29.508v41.61a8.373 8.373 0 1 0 16.746 0v-41.61h29.509a8.373 8.373 0 0 0 0-16.746ZM1296.657 970.723h-118.363a16.294 16.294 0 1 1 0-32.587h118.363a16.294 16.294 0 0 1 0 32.587ZM1446.884 820.496a16.293 16.293 0 0 1-16.294-16.293V685.839a16.294 16.294 0 0 1 32.587 0v118.364a16.293 16.293 0 0 1-16.293 16.293ZM1338.271 862.11a16.242 16.242 0 0 1-11.521-4.772l-81.31-81.309a16.294 16.294 0 0 1 23.043-23.043l81.31 81.31a16.294 16.294 0 0 1-11.522 27.814Z"></path><path fill="#262f5f" d="M1446.419 899.749h2106.737a46.065 46.065 0 0 1 46.065 46.065v1267.858a46.065 46.065 0 0 1-46.065 46.065H1446.42a46.065 46.065 0 0 1-46.065-46.065V945.814a46.065 46.065 0 0 1 46.065-46.065Z"></path><path fill="#fff" d="M1463.706 970.771h2072.16v1206.48h-2072.16z"></path><path fill="#211f44" d="M1463.705 970.776h29.402v1206.477h-29.402z"></path><path fill="#f2f8ff" d="m2268 1000.178-774.894 774.924v314l1089-1089.001-314.106.077zM3535.866 970.771v301.071l-905.41 905.409h-701.5l1192.15-1192.15v-14.33h414.76zM3535.866 1371.342v191.5l-614.41 614.409h-191.5l805.91-805.909z"></path><path fill="#211f44" d="M3506.468 970.776h29.402v1206.477h-29.402z"></path><path fill="#211f44" d="M2485.086-50.606h29.402V2021.56h-29.402z" transform="rotate(-90 2499.788 985.477)"></path><path fill="#211f44" d="M1208.575 2274.453h2582.85v13.84a103.473 103.473 0 0 1-103.473 103.473H1312.048a103.473 103.473 0 0 1-103.473-103.473v-13.84Z"></path><path fill="#739cd2" d="M1349.07 2248.516h2301.434a23.143 23.143 0 0 1 23.143 23.143v2.794h-2347.72v-2.794a23.143 23.143 0 0 1 23.144-23.143Z"></path><path fill="#9dbde4" d="M2538 2274.702h-270l20.05 26.273a29.814 29.814 0 0 0 23.701 11.727h376.498a29.814 29.814 0 0 0 23.7-11.727l20.051-26.273Z"></path><path fill="#739cd2" d="M1052.164 1278.987h1634.138a46.995 46.995 0 0 1 46.995 46.995v449.787a46.995 46.995 0 0 1-46.995 46.995h-426.75l-40.122 169.913-238.5-169.913h-928.766a46.995 46.995 0 0 1-46.995-46.995v-449.787a46.995 46.995 0 0 1 46.995-46.995Z"></path><path fill="#9dbde4" d="M1007.753 1247.63H2641.89a46.995 46.995 0 0 1 46.995 46.994v449.787a46.995 46.995 0 0 1-46.995 46.995h-426.75l-40.122 169.913-238.5-169.913h-928.766a46.995 46.995 0 0 1-46.995-46.995v-449.787a46.995 46.995 0 0 1 46.995-46.994Z"></path><circle cx="1298.235" cy="1518.885" r="167.85" fill="#fff"></circle><path fill="#262f5f" d="M1892.524 1375.718h-282.78a20.55 20.55 0 0 1-20.55-20.55 20.55 20.55 0 0 1 20.55-20.551h282.78a20.55 20.55 0 0 1 20.55 20.55 20.55 20.55 0 0 1-20.55 20.551Z"></path><path fill="#739cd2" d="M2188.611 1706.75h-582.05a17.367 17.367 0 0 1-17.367-17.367 17.367 17.367 0 0 1 17.367-17.367h582.05a17.367 17.367 0 0 1 17.367 17.367 17.367 17.367 0 0 1-17.367 17.367ZM1834.71 1462.906h-227.694c-9.735 0-18.002 7.966-17.82 17.699a17.367 17.367 0 0 0 17.365 17.035h228.15a17.367 17.367 0 0 0 17.367-17.367 17.367 17.367 0 0 0-17.368-17.367ZM2415.914 1462.906h-515.047a17.367 17.367 0 0 0-17.368 17.367 17.367 17.367 0 0 0 17.368 17.367h515.502a17.367 17.367 0 0 0 17.364-17.035c.182-9.733-8.085-17.7-17.82-17.7ZM2265.947 1584.828a17.367 17.367 0 0 0-17.368-17.367h-642.018a17.367 17.367 0 0 0-17.367 17.367 17.367 17.367 0 0 0 17.367 17.367h642.019a17.367 17.367 0 0 0 17.367-17.367ZM2543.037 1567.46h-219.324a17.367 17.367 0 0 0-17.367 17.368 17.367 17.367 0 0 0 17.367 17.367h219.324a17.367 17.367 0 0 0 17.367-17.367 17.367 17.367 0 0 0-17.367-17.367Z"></path><path fill="#262f5f" d="m1274.068 1604.482-68.235-73.922 31.533-29.107 34.518 37.393 85.717-106.241 33.399 26.947-116.932 144.93z"></path><circle cx="1298.235" cy="1518.885" r="150" fill="none" stroke="#9dbde4" stroke-miterlimit="10" stroke-width="7"></circle><path fill="#262f5f" d="M4235.837 2106.735v219.374a60.005 60.005 0 0 1-.45 7.388 60.838 60.838 0 0 1-2.487 11.36c-8.744 27.26-36.085 47.143-68.467 47.143h-112.49c-39.447 0-71.406-29.503-71.406-65.891v-219.374Z"></path><path fill="#211f44" d="M4263.984 2154.915a90.856 90.856 0 0 0-28.147-4.44 89.676 89.676 0 0 0-12.187.82 91.168 91.168 0 0 0 0 180.698 89.836 89.836 0 0 0 11.737.82h.45a91.178 91.178 0 0 0 28.147-177.898Zm0 148.125a67.476 67.476 0 0 1-28.147 6.121 68.77 68.77 0 0 1-12.187-1.093 67.53 67.53 0 0 1 0-132.836 68.77 68.77 0 0 1 12.187-1.092 67.527 67.527 0 0 1 28.147 128.9Z"></path><path fill="#211f44" d="M4235.837 2106.735v219.374a60.005 60.005 0 0 1-.45 7.388 60.838 60.838 0 0 1-2.487 11.36c-8.744 27.26-36.085 47.143-68.467 47.143h-56.252v-285.265Z"></path><path fill="#211f44" d="M4263.984 2154.915v25.346a67.476 67.476 0 00-28.147-6.121v-23.665a90.856 90.856 0 0128.147 4.44zM4235.837 2309.161a67.476 67.476 0 0028.147-6.121v25.332a90.856 90.856 0 01-28.147 4.44h-.45a70.396 70.396 0 00.45-8.006z" opacity=".5"></path><path fill="#9dbde4" d="M4246.431 1936.02a18.502 18.502 0 0 0-18.501-18.502h-113.39a16.123 16.123 0 0 1-16.123-16.123 16.123 16.123 0 0 1 16.123-16.123h27.488a13.48 13.48 0 0 0 13.48-13.48 13.48 13.48 0 0 0-13.48-13.48h-105.47a13.48 13.48 0 0 0-13.479 13.48 13.48 13.48 0 0 0 13.48 13.48h9.451a16.123 16.123 0 0 1 16.124 16.123 16.123 16.123 0 0 1-16.124 16.123h-24.773a18.502 18.502 0 0 0-18.502 18.502 18.502 18.502 0 0 0 18.502 18.502h90.411a13.728 13.728 0 0 1 13.728 13.728 13.728 13.728 0 0 1-13.728 13.728h-68.378a18.138 18.138 0 0 0-18.138 18.138 18.138 18.138 0 0 0 18.138 18.137h22.451a10.051 10.051 0 0 1 10.051 10.051v8.015a15.359 15.359 0 0 0 15.359 15.359 15.359 15.359 0 0 0 15.359-15.359v-8.02a10.051 10.051 0 0 1 10.046-10.05l66.977-.032a18.101 18.101 0 0 0 18.093-18.101 18.129 18.129 0 0 0-18.117-18.13l-10.036-.006a13.721 13.721 0 0 1-13.716-13.716v-.003a13.728 13.728 0 0 1 13.728-13.74h54.465a18.502 18.502 0 0 0 18.501-18.501Z"></path><path fill="#262f5f" d="M4480.546 2430.454H519.241a19.348 19.348 0 0 1-19.347-19.348 19.348 19.348 0 0 1 19.347-19.347h3961.305a19.348 19.348 0 0 1 19.348 19.347 19.348 19.348 0 0 1-19.348 19.348Z"></path></g></svg>